<?xml version="1.0" encoding="UTF-8"?>
<svg version="1.1" xmlns="http://www.w3.org/2000/svg" width="256" height="256">
<path d="M0 0 C2.50361122 0.00848928 5.0049141 -0.02033527 7.50830078 -0.05200195 C39.66455508 -0.19027406 69.76158964 13.78385211 92.52001953 36.19604492 C99.31043501 43.07528734 105.1106932 50.28279191 110.27001953 58.44604492 C110.97513672 59.54045898 111.68025391 60.63487305 112.40673828 61.76245117 C130.70130177 91.83522888 134.06481321 127.62114877 126.27001953 161.44604492 C124.72629245 167.30292225 122.67447589 172.89177833 120.27001953 178.44604492 C119.98674805 179.10475586 119.70347656 179.7634668 119.41162109 180.44213867 C105.26863477 212.50999274 79.36949772 236.16614137 47.08251953 249.16479492 C32.24661287 254.87565206 18.30812739 256.68851573 2.45751953 256.75854492 C1.24161133 256.76418457 0.02570313 256.76982422 -1.22705078 256.77563477 C-22.1474744 256.60751913 -40.97016606 250.40340004 -59.16748047 240.38354492 C-60.32231934 239.74811768 -60.32231934 239.74811768 -61.50048828 239.09985352 C-65.55121699 236.82209624 -69.11867825 234.38883021 -72.72998047 231.44604492 C-73.71998047 231.11604492 -74.70998047 230.78604492 -75.72998047 230.44604492 C-77.44076409 228.82469519 -79.10048382 227.14907053 -80.72998047 225.44604492 C-81.69438341 224.48724323 -82.6619132 223.53157782 -83.63232422 222.57885742 C-94.93893807 211.39546138 -94.93893807 211.39546138 -98.72998047 206.44604492 C-98.72998047 205.45604492 -98.72998047 204.46604492 -98.72998047 203.44604492 C-99.71998047 203.11604492 -100.70998047 202.78604492 -101.72998047 202.44604492 C-103.31256822 200.0099267 -104.72842156 197.61980045 -106.10498047 195.07104492 C-106.50273682 194.34804199 -106.90049316 193.62503906 -107.31030273 192.88012695 C-111.42625932 185.31643761 -115.16663474 177.68537048 -117.72998047 169.44604492 C-118.20822266 168.24979492 -118.68646484 167.05354492 -119.17919922 165.82104492 C-127.14060237 144.58983332 -125.43781556 118.19624302 -120.72998047 96.44604492 C-120.57529297 95.56432617 -120.42060547 94.68260742 -120.26123047 93.77416992 C-118.34671341 83.39159663 -113.17060742 74.17336008 -108.16748047 65.00854492 C-107.69640869 64.14382568 -107.22533691 63.27910645 -106.73999023 62.38818359 C-104.35538426 58.0947192 -101.94301895 54.18570175 -98.72998047 50.44604492 C-98.15119141 49.6906543 -97.57240234 48.93526367 -96.97607422 48.15698242 C-81.99628455 28.8094355 -62.18085896 14.45497337 -39.16748047 6.13354492 C-38.53197266 5.90296387 -37.89646484 5.67238281 -37.24169922 5.43481445 C-24.839904 1.21510363 -12.99768587 -0.06686831 0 0 Z " fill="#FEFEFE" transform="translate(124.72998046875,-0.446044921875)"/>
<path d="M0 0 C6.18894655 10.88570868 2.20000966 30.34188441 -1 42 C-7.64717726 63.82648456 -18.23479679 82.51162233 -34 99 C-34.60972656 99.67289062 -35.21945313 100.34578125 -35.84765625 101.0390625 C-55.37388197 121.85045381 -85.59868624 134.09673153 -113.7109375 136.203125 C-146.6036232 136.78188193 -177.49825371 121.04562818 -201 99 C-204.19491056 95.80508944 -207.15628577 92.50985988 -210 89 C-210.71671875 88.11957031 -211.4334375 87.23914063 -212.171875 86.33203125 C-215.96922694 81.34984663 -215.96922694 81.34984663 -217 79 C-215.65927391 73.29975167 -211.54476655 70.31912599 -207 67 C-195.21884974 59.75605306 -181.39362257 56.62469443 -167.73046875 59.47314453 C-162.68734282 60.76041302 -157.75710578 62.38120697 -152.82763672 64.04541016 C-112.22210449 78.23130182 -112.22210449 78.23130182 -71 71 C-69.88753906 70.48050781 -68.77507812 69.96101563 -67.62890625 69.42578125 C-54.82887712 62.95792201 -44.30505897 53.80788507 -34 44 C-33.04867187 43.12794922 -33.04867187 43.12794922 -32.078125 42.23828125 C-19.39290329 30.24772644 -9.57661768 14.48944519 0 0 Z " fill="#DC28AE" transform="translate(245,113)"/>
<path d="M0 0 C3.55721523 4.31378713 5.52773439 9.20395213 7.5 14.375 C7.94956055 15.54506592 7.94956055 15.54506592 8.40820312 16.73876953 C16.15246518 37.44170766 16.15246518 37.44170766 14 44 C12.55150409 46.39116784 11.07414485 48.69476206 9.5 51 C9.05003662 51.66499512 8.60007324 52.32999023 8.13647461 53.01513672 C-10.21204155 79.93058957 -32.99508267 107.38424745 -65 118 C-66.00933594 118.35449219 -67.01867187 118.70898438 -68.05859375 119.07421875 C-91.15681908 125.49434404 -116.09802648 115.91799114 -137.69799805 108.47900391 C-155.44546932 102.37212026 -170.46138422 100.50759347 -188 108 C-193.60598844 111.11522648 -198.39991365 114.59987047 -202 120 C-205 119 -205 119 -206.30273438 116.94970703 C-206.72876953 116.06138184 -207.15480469 115.17305664 -207.59375 114.2578125 C-208.06683594 113.27296875 -208.53992188 112.288125 -209.02734375 111.2734375 C-209.75630859 109.71496094 -209.75630859 109.71496094 -210.5 108.125 C-210.98597656 107.1246875 -211.47195312 106.124375 -211.97265625 105.09375 C-215.08386293 98.53224055 -217.34705562 92.07034753 -219 85 C-209.55243613 77.29660176 -203.53261275 74.4876096 -191.3125 74.625 C-190.29994141 74.61339844 -189.28738281 74.60179687 -188.24414062 74.58984375 C-175.35038575 74.63908788 -164.37943125 78.80022424 -152.5625 83.625 C-150.1075918 84.62263494 -147.65012676 85.61329234 -145.19140625 86.6015625 C-144.12092041 87.03807129 -143.05043457 87.47458008 -141.94750977 87.92431641 C-126.04603012 93.72750694 -108.75518109 88.67742062 -93.98828125 81.97460938 C-75.87389102 73.09535523 -60.77922989 59.49654005 -48.26953125 43.83203125 C-45.95803128 40.94762939 -43.57879588 38.13094921 -41.1875 35.3125 C-37.80243531 31.28191135 -34.62785843 27.16765735 -31.53173828 22.91210938 C-11.47771413 -4.57667094 -11.47771413 -4.57667094 0 0 Z " fill="#FE89D6" transform="translate(231,70)"/>
<path d="M0 0 C2.50361122 0.00848928 5.0049141 -0.02033527 7.50830078 -0.05200195 C39.66455508 -0.19027406 69.76158964 13.78385211 92.52001953 36.19604492 C99.31043501 43.07528734 105.1106932 50.28279191 110.27001953 58.44604492 C110.97513672 59.54045898 111.68025391 60.63487305 112.40673828 61.76245117 C130.70130177 91.83522888 134.06481321 127.62114877 126.27001953 161.44604492 C124.72629245 167.30292225 122.67447589 172.89177833 120.27001953 178.44604492 C119.98674805 179.10475586 119.70347656 179.7634668 119.41162109 180.44213867 C105.26863477 212.50999274 79.36949772 236.16614137 47.08251953 249.16479492 C32.24661287 254.87565206 18.30812739 256.68851573 2.45751953 256.75854492 C1.24161133 256.76418457 0.02570313 256.76982422 -1.22705078 256.77563477 C-22.1474744 256.60751913 -40.97016606 250.40340004 -59.16748047 240.38354492 C-60.32231934 239.74811768 -60.32231934 239.74811768 -61.50048828 239.09985352 C-65.55121699 236.82209624 -69.11867825 234.38883021 -72.72998047 231.44604492 C-73.71998047 231.11604492 -74.70998047 230.78604492 -75.72998047 230.44604492 C-77.44076409 228.82469519 -79.10048382 227.14907053 -80.72998047 225.44604492 C-81.69438341 224.48724323 -82.6619132 223.53157782 -83.63232422 222.57885742 C-94.93893807 211.39546138 -94.93893807 211.39546138 -98.72998047 206.44604492 C-98.72998047 205.45604492 -98.72998047 204.46604492 -98.72998047 203.44604492 C-99.71998047 203.11604492 -100.70998047 202.78604492 -101.72998047 202.44604492 C-103.31256822 200.0099267 -104.72842156 197.61980045 -106.10498047 195.07104492 C-106.50273682 194.34804199 -106.90049316 193.62503906 -107.31030273 192.88012695 C-111.42625932 185.31643761 -115.16663474 177.68537048 -117.72998047 169.44604492 C-118.20822266 168.24979492 -118.68646484 167.05354492 -119.17919922 165.82104492 C-127.14060237 144.58983332 -125.43781556 118.19624302 -120.72998047 96.44604492 C-120.57529297 95.56432617 -120.42060547 94.68260742 -120.26123047 93.77416992 C-118.34671341 83.39159663 -113.17060742 74.17336008 -108.16748047 65.00854492 C-107.69640869 64.14382568 -107.22533691 63.27910645 -106.73999023 62.38818359 C-104.35538426 58.0947192 -101.94301895 54.18570175 -98.72998047 50.44604492 C-98.15119141 49.6906543 -97.57240234 48.93526367 -96.97607422 48.15698242 C-81.99628455 28.8094355 -62.18085896 14.45497337 -39.16748047 6.13354492 C-38.53197266 5.90296387 -37.89646484 5.67238281 -37.24169922 5.43481445 C-24.839904 1.21510363 -12.99768587 -0.06686831 0 0 Z M-20.72998047 9.44604492 C-22.21561478 9.86416569 -23.70129517 10.28212273 -25.18701172 10.69995117 C-46.38533976 16.84964414 -63.85808324 27.11257488 -79.72998047 42.44604492 C-80.41833984 43.09444336 -81.10669922 43.7428418 -81.81591797 44.41088867 C-83.16763789 45.70866671 -84.4589743 47.06912157 -85.72998047 48.44604492 C-85.72998047 49.10604492 -85.72998047 49.76604492 -85.72998047 50.44604492 C-86.38998047 50.44604492 -87.04998047 50.44604492 -87.72998047 50.44604492 C-89.44473586 52.59994498 -91.03642925 54.75175184 -92.60498047 57.00854492 C-93.03939453 57.61762695 -93.47380859 58.22670898 -93.92138672 58.85424805 C-99.45173773 66.07256384 -99.45173773 66.07256384 -101.72998047 74.44604492 C-102.38998047 74.44604492 -103.04998047 74.44604492 -103.72998047 74.44604492 C-104.04451172 75.2684668 -104.35904297 76.09088867 -104.68310547 76.93823242 C-105.11107422 78.05456055 -105.53904297 79.17088867 -105.97998047 80.32104492 C-106.66640625 82.1212207 -106.66640625 82.1212207 -107.36669922 83.95776367 C-108.14670996 85.95360777 -108.94837601 87.94196837 -109.81201172 89.90307617 C-119.03836176 110.89210356 -119.80943562 135.74336335 -112.72998047 157.44604492 C-112.52630859 158.0926709 -112.32263672 158.73929688 -112.11279297 159.40551758 C-106.87263768 175.68800627 -98.77482995 191.36271651 -87.72998047 204.44604492 C-86.89982422 205.43862305 -86.06966797 206.43120117 -85.21435547 207.45385742 C-64.63579163 231.32300873 -34.04294558 246.50523283 -2.72998047 249.44604492 C27.97367273 251.19472981 57.9765634 237.81455464 80.64501953 217.82104492 C82.19398508 216.37046643 83.73618118 214.91260966 85.27001953 213.44604492 C85.94291016 212.83631836 86.61580078 212.2265918 87.30908203 211.59838867 C104.10541526 195.83927921 115.00797317 172.57837055 120.27001953 150.44604492 C120.49560547 149.52178711 120.72119141 148.5975293 120.95361328 147.64526367 C125.22867555 126.80064972 121.57335269 106.08725746 114.27001953 86.44604492 C113.85494141 85.32584961 113.43986328 84.2056543 113.01220703 83.05151367 C110.50789371 76.64781559 110.50789371 76.64781559 106.58251953 71.07104492 C104.27001953 68.44604492 104.27001953 68.44604492 103.39501953 65.63354492 C98.73504549 52.43028515 82.91983007 37.90192367 71.27001953 30.44604492 C70.61001953 30.44604492 69.95001953 30.44604492 69.27001953 30.44604492 C69.27001953 29.78604492 69.27001953 29.12604492 69.27001953 28.44604492 C64.30078825 24.48649808 59.07167767 21.63165774 53.33251953 18.94604492 C52.08571411 18.36185791 52.08571411 18.36185791 50.8137207 17.76586914 C43.14812883 14.25737827 35.44237835 11.50251506 27.27001953 9.44604492 C26.63032227 9.28378418 25.990625 9.12152344 25.33154297 8.9543457 C10.03747795 5.23261064 -5.59556189 4.87293098 -20.72998047 9.44604492 Z " fill="#F5CFEB" transform="translate(124.72998046875,-0.446044921875)"/>
<path d="M0 0 C5.11528688 2.05215049 8.83549084 5.06710232 11.5625 9.875 C13.20490357 13.90079852 14.04372401 17.72073156 13 22 C10.4287448 27.67740655 7.0385481 31.99057851 1.20703125 34.41015625 C-4.18612393 35.85151277 -9.63802756 36.0112815 -14.75 33.5625 C-19.47413512 30.38689373 -23.16928736 25.43699427 -24.51171875 19.8828125 C-24.80284067 14.72292739 -23.01294606 10.98486414 -20 7 C-13.76415555 0.15578048 -9.12015661 -1.26731705 0 0 Z " fill="#FEDAF7" transform="translate(78,75)"/>
<path d="M0 0 C3.83084349 2.61193874 6.65161815 5.67823629 8.75 9.875 C9.2738576 15.13075165 9.41505372 19.52026095 7.0625 24.3125 C3.44774194 28.31804271 0.2763741 31.45812244 -5.265625 32.11328125 C-11.19156563 32.31012194 -14.46483459 31.44041736 -19.25 27.875 C-23.650141 22.31692716 -24.95589957 17.93399568 -24.25 10.875 C-22.14401006 5.82251293 -19.16738137 1.92763793 -14.20703125 -0.50390625 C-9.27397875 -2.06948579 -4.83415531 -1.67336145 0 0 Z " fill="#FEBAEF" transform="translate(136.25,99.125)"/>
<path d="M0 0 C3.14699909 1.43393698 5.10288125 3.10999667 7 6 C8.11181916 9.10313707 8.40446421 11.72911551 8 15 C5.87649537 19.41035577 3.58442255 22.20609552 -1 24 C-5.13393752 24.62320666 -9.13042239 24.99787271 -12.91015625 22.98046875 C-16.74877533 19.8586434 -18.84329343 17.17529925 -19.5 12.25 C-19.41721519 7.77134174 -17.49769417 5.51808633 -14.5078125 2.34765625 C-10.47365216 -1.25800519 -5.08479632 -0.71341021 0 0 Z " fill="#FEE2FB" transform="translate(159,41)"/>
<path d="M0 0 C0.04987075 3.98352168 0.08593964 7.9669195 0.10986328 11.95068359 C0.12472879 13.96328119 0.150157 15.97579188 0.17578125 17.98828125 C0.20942447 24.6832828 0.07013149 30.61030281 -2 37 C-2.66 37 -3.32 37 -4 37 C-5.08318169 42.3212615 -6.152874 47.63486869 -7 53 C-7.99 53 -8.98 53 -10 53 C-9.96744792 51.046875 -9.93489583 49.09375 -9.90234375 47.140625 C-9.91110919 45.00709737 -9.91110919 45.00709737 -10.5859375 43.078125 C-11.15171378 40.23856857 -10.47461843 38.2754318 -9.6875 35.5 C-7.48898967 27.22797939 -6.08541596 19.11158721 -5.625 10.5625 C-5.3817388 7.12530933 -4.8119327 0 0 0 Z " fill="#FDCBEF" transform="translate(253,117)"/>
<path d="M0 0 C0.66 0.33 1.32 0.66 2 1 C1.01 2.1446875 1.01 2.1446875 0 3.3125 C-2.29850538 5.84277939 -2.29850538 5.84277939 -2 9 C-4.16015625 11.3828125 -4.16015625 11.3828125 -7.0625 14.125 C-11.87048873 18.75275712 -16.08074155 23.58259498 -20 29 C-20.66 28.67 -21.32 28.34 -22 28 C-22.45375 28.495 -22.9075 28.99 -23.375 29.5 C-25 31 -25 31 -27 31 C-21.40420904 19.06415031 -10.79612463 7.54680557 0 0 Z " fill="#F9CAED" transform="translate(49,26)"/>
<path d="M0 0 C1.32 0.33 2.64 0.66 4 1 C4 1.66 4 2.32 4 3 C4.99 3.33 5.98 3.66 7 4 C7 4.66 7 5.32 7 6 C7.66 6 8.32 6 9 6 C9 6.66 9 7.32 9 8 C9.825 8.020625 10.65 8.04125 11.5 8.0625 C16.4695449 9.3936281 19.36984019 12.47118983 23 16 C22.67 16.66 22.34 17.32 22 18 C22.33 18.66 22.66 19.32 23 20 C23.928125 19.938125 24.85625 19.87625 25.8125 19.8125 C29 20 29 20 30.6875 21.1875 C32.27593478 23.38105279 33.6635514 25.64530485 35 28 C34.01 28.495 34.01 28.495 33 29 C30.5390625 27.63671875 30.5390625 27.63671875 27.625 25.6875 C23.91341894 23.16919966 23.91341894 23.16919966 19.9609375 21.08203125 C17.1297925 19.51982574 15.23204042 17.33109547 13 15 C11.97735333 13.9939332 10.95117834 12.99144285 9.921875 11.9921875 C8.86453822 10.95317091 7.807247 9.91410795 6.75 8.875 C5.93789063 8.08802734 5.93789063 8.08802734 5.109375 7.28515625 C2.67352012 4.87974956 1.09821865 3.29465595 0 0 Z " fill="#EAC6E0" transform="translate(31,210)"/>
<path d="M0 0 C0.04987075 3.98352168 0.08593964 7.9669195 0.10986328 11.95068359 C0.12472879 13.96328119 0.150157 15.97579188 0.17578125 17.98828125 C0.20942447 24.6832828 0.07013149 30.61030281 -2 37 C-2.33 37 -2.66 37 -3 37 C-3 32.38 -3 27.76 -3 23 C-3.66 22.67 -4.32 22.34 -5 22 C-5.33 23.32 -5.66 24.64 -6 26 C-5.94795144 22.60293431 -5.85283764 19.20837778 -5.75 15.8125 C-5.73582031 14.85279297 -5.72164062 13.89308594 -5.70703125 12.90429688 C-5.55144384 8.40782075 -5.44074029 5.70535799 -3.015625 1.82421875 C-1 0 -1 0 0 0 Z " fill="#FED4F3" transform="translate(253,117)"/>
<path d="M0 0 C1 3 1 3 -0.22265625 5.85546875 C-0.82980469 6.95503906 -1.43695313 8.05460938 -2.0625 9.1875 C-2.38105957 9.76612793 -2.69961914 10.34475586 -3.02783203 10.94091797 C-5.32667151 15.03091278 -7.87159386 18.78393044 -10.8359375 22.4140625 C-12.20817205 24.1138234 -12.20817205 24.1138234 -13 27 C-14.08981864 28.15793231 -15.19124164 29.30679075 -16.34375 30.40234375 C-17.64390125 31.65649909 -18.90748099 32.94858068 -20.15625 34.25390625 C-20.9296875 35.05699219 -21.703125 35.86007813 -22.5 36.6875 C-23.2321875 37.45449219 -23.964375 38.22148437 -24.71875 39.01171875 C-27.07365648 41.06419717 -29.05239249 42.02957288 -32 43 C-32 42.34 -32 41.68 -32 41 C-30.71484375 39.7734375 -30.71484375 39.7734375 -28.9375 38.375 C-17.74586724 29.04863936 -10.07177114 16.42811844 -2.78515625 3.9921875 C-1 1 -1 1 0 0 Z " fill="#FDCBEF" transform="translate(238,181)"/>
<path d="M0 0 C0.66 0 1.32 0 2 0 C1.57688594 5.77955799 -0.77883845 9.30585358 -4.0625 13.875 C-4.58038086 14.60517334 -5.09826172 15.33534668 -5.63183594 16.08764648 C-11.85617212 24.57463267 -19.3427529 31.81804039 -27 39 C-27.33 37.68 -27.66 36.36 -28 35 C-27.33613281 34.41992188 -26.67226562 33.83984375 -25.98828125 33.2421875 C-20.16873913 28.15779018 -20.16873913 28.15779018 -15 22.4375 C-14.34 21.633125 -13.68 20.82875 -13 20 C-12.34 20 -11.68 20 -11 20 C-10.87689453 19.40977051 -10.75378906 18.81954102 -10.62695312 18.21142578 C-9.63417588 14.70964373 -7.49857908 11.87596239 -5.5 8.875 C-2.5723807 4.54205916 -2.5723807 4.54205916 0 0 Z " fill="#D4BECF" transform="translate(236,188)"/>
<path d="M0 0 C10.31276978 5.50014388 19.01718809 12.48500062 27 21 C26.01 21.99 25.02 22.98 24 24 C23.49210937 23.48050781 22.98421875 22.96101563 22.4609375 22.42578125 C19.26382945 19.18676355 16.10159137 15.992439 12.5625 13.125 C10 11 10 11 9 9 C8.13375 8.8453125 8.13375 8.8453125 7.25 8.6875 C3.89774255 7.66319911 2.245036 5.61920866 0 3 C0 2.01 0 1.02 0 0 Z " fill="#DCC3D6" transform="translate(192,17)"/>
<path d="M0 0 C0.33 0 0.66 0 1 0 C0.13646684 10.36239795 -2.46318983 19.90064366 -6.0625 29.625 C-6.31990967 30.32439697 -6.57731934 31.02379395 -6.8425293 31.74438477 C-7.95040664 34.65251803 -8.77471308 36.77471308 -11 39 C-11 36.69 -11 34.38 -11 32 C-10.67 32 -10.34 32 -10 32 C-10 29.36 -10 26.72 -10 24 C-8.68 24 -7.36 24 -6 24 C-5.95101562 23.02417969 -5.90203125 22.04835937 -5.8515625 21.04296875 C-5.77679688 19.77066406 -5.70203125 18.49835938 -5.625 17.1875 C-5.55539063 15.92292969 -5.48578125 14.65835938 -5.4140625 13.35546875 C-5 10 -5 10 -3 7 C-2.34 7.33 -1.68 7.66 -1 8 C-0.67 5.36 -0.34 2.72 0 0 Z " fill="#C4AFBE" transform="translate(252,146)"/>
<path d="M0 0 C0.4125 0.61875 0.825 1.2375 1.25 1.875 C2.79748353 4.08669953 2.79748353 4.08669953 4.90625 4.8125 C7.72732895 6.41251493 8.66844363 8.32133189 10.25 11.125 C10.77078125 12.03507813 11.2915625 12.94515625 11.828125 13.8828125 C12.40820312 14.93082031 12.40820312 14.93082031 13 16 C12.34 16 11.68 16 11 16 C11.33 17.65 11.66 19.3 12 21 C9.5 19.1875 9.5 19.1875 7 17 C7 16.01 7 15.02 7 14 C6.01 13.67 5.02 13.34 4 13 C2.39453125 10.49609375 2.39453125 10.49609375 0.8125 7.4375 C0.28269531 6.42558594 -0.24710938 5.41367188 -0.79296875 4.37109375 C-1.19128906 3.58863281 -1.58960937 2.80617187 -2 2 C-1.34 2 -0.68 2 0 2 C0 1.34 0 0.68 0 0 Z " fill="#F7D0EC" transform="translate(19,189)"/>
<path d="M0 0 C-0.99 0.33 -1.98 0.66 -3 1 C-3 1.66 -3 2.32 -3 3 C-4.41225926 3.67595315 -5.83002905 4.34040059 -7.25 5 C-8.43335938 5.556875 -8.43335938 5.556875 -9.640625 6.125 C-12 7 -12 7 -16 7 C-16.33 7.99 -16.66 8.98 -17 10 C-19.5625 11.1875 -19.5625 11.1875 -22 12 C-22 11.34 -22 10.68 -22 10 C-22.33 10.66 -22.66 11.32 -23 12 C-25.5625 12.625 -25.5625 12.625 -28 13 C-24.24599762 8.8785233 -20.4941447 6.30678489 -15.5625 3.75 C-14.91990234 3.399375 -14.27730469 3.04875 -13.61523438 2.6875 C-4.37800926 -2.18900463 -4.37800926 -2.18900463 0 0 Z " fill="#E2C7DB" transform="translate(83,10)"/>
<path d="M0 0 C3 1 3 1 4 3 C4.928125 2.938125 5.85625 2.87625 6.8125 2.8125 C10 3 10 3 11.6875 4.1875 C13.27593478 6.38105279 14.6635514 8.64530485 16 11 C15.01 11.495 15.01 11.495 14 12 C11.5390625 10.63671875 11.5390625 10.63671875 8.625 8.6875 C5.4788882 6.59715887 2.42593847 4.59931251 -1 3 C-0.67 2.01 -0.34 1.02 0 0 Z " fill="#E7C8DF" transform="translate(50,227)"/>
<path d="M0 0 C0.66 0.33 1.32 0.66 2 1 C0.27840626 2.94470746 -1.45166256 4.88057309 -3.1875 6.8125 C-3.67025391 7.35970703 -4.15300781 7.90691406 -4.65039062 8.47070312 C-7.48675325 11.6116416 -10.09492381 14.18572453 -14 16 C-14.66 15.67 -15.32 15.34 -16 15 C-14.08643227 13.05935348 -12.16932062 11.122443 -10.25 9.1875 C-9.71117187 8.64029297 -9.17234375 8.09308594 -8.6171875 7.52929688 C-5.88259137 4.77802637 -3.20316096 2.21577882 0 0 Z " fill="#CBB7C6" transform="translate(49,26)"/>
<path d="M0 0 C0.33 0 0.66 0 1 0 C0.55470625 4.67558434 0.03524486 9.31616519 -0.8125 13.9375 C-0.94269531 14.66839844 -1.07289063 15.39929688 -1.20703125 16.15234375 C-2 18 -2 18 -6 20 C-5.34 15.71 -4.68 11.42 -4 7 C-3.01 7.33 -2.02 7.66 -1 8 C-0.67 5.36 -0.34 2.72 0 0 Z " fill="#D2BACB" transform="translate(252,146)"/>
<path d="M0 0 C0.33 0 0.66 0 1 0 C1.04987075 3.98352168 1.08593964 7.9669195 1.10986328 11.95068359 C1.12472879 13.96328119 1.150157 15.97579188 1.17578125 17.98828125 C1.20942447 24.6832828 1.07013149 30.61030281 -1 37 C-1.33 37 -1.66 37 -2 37 C-2.02777514 35.66679321 -2.04673341 34.33340287 -2.0625 33 C-2.07990234 31.88625 -2.07990234 31.88625 -2.09765625 30.75 C-1.99602867 27.88816735 -1.63168918 25.10234657 -1.25610352 22.265625 C-0.77664081 18.02404831 -0.62647056 13.76268024 -0.4375 9.5 C-0.39431641 8.5821875 -0.35113281 7.664375 -0.30664062 6.71875 C-0.20166544 4.47927939 -0.09950752 2.23971908 0 0 Z " fill="#FCE0F6" transform="translate(252,117)"/>
<path d="M0 0 C2.44365166 2.44365166 3.06420527 4.48960663 4.1875 7.75 C4.55230469 8.77609375 4.91710937 9.8021875 5.29296875 10.859375 C6.0641867 14.2851166 5.79721246 16.6080387 5 20 C1.24448836 16.24448836 0.24492076 9.91905556 -0.19140625 4.71875 C-0.18818042 3.14454317 -0.1047149 1.57072351 0 0 Z " fill="#CDB9C8" transform="translate(244,77)"/>
<path d="M0 0 C0.33 0 0.66 0 1 0 C3.01670288 7.43659188 3.2137731 14.31604457 3 22 C2.34 22 1.68 22 1 22 C0.16788724 16.96145894 -0.1078534 12.1874338 -0.0625 7.0625 C-0.05798828 6.37865234 -0.05347656 5.69480469 -0.04882812 4.99023438 C-0.0371956 3.32678396 -0.01926694 1.6633795 0 0 Z " fill="#DCC6D7" transform="translate(250,95)"/>
<path d="M0 0 C1 2 2 4 3 6 C2.00390625 8.1640625 2.00390625 8.1640625 0.5625 10.625 C0.08941406 11.44226563 -0.38367188 12.25953125 -0.87109375 13.1015625 C-1.24363281 13.72804688 -1.61617187 14.35453125 -2 15 C-3.125 11.25 -3.125 11.25 -2 9 C-2.66 9 -3.32 9 -4 9 C-2.94124926 5.59687262 -1.99097846 2.98646769 0 0 Z " fill="#E2BFD9" transform="translate(21,57)"/>
<path d="M0 0 C0.65795898 1.81152344 0.65795898 1.81152344 1 4 C-0.91934784 6.29016466 -2.76347858 8.23281698 -4.9375 10.25 C-5.51435547 10.80429688 -6.09121094 11.35859375 -6.68554688 11.9296875 C-8.11277729 13.29794145 -9.55502058 14.6505038 -11 16 C-11.33 14.68 -11.66 13.36 -12 12 C-11.30132812 11.38511719 -10.60265625 10.77023438 -9.8828125 10.13671875 C-8.51769531 8.92435547 -8.51769531 8.92435547 -7.125 7.6875 C-6.22007812 6.88699219 -5.31515625 6.08648437 -4.3828125 5.26171875 C-1.86787689 3.04188943 -1.86787689 3.04188943 0 0 Z " fill="#DCC6D7" transform="translate(220,211)"/>
<path d="M0 0 C2.47878682 2.1554668 3.57563804 3.71119485 4 7 C3.67 7.66 3.34 8.32 3 9 C2.64830932 10.32860925 2.31229724 11.66158328 2 13 C1.15885829 11.56705502 0.32734313 10.12845595 -0.5 8.6875 C-1.19609375 7.48673828 -1.19609375 7.48673828 -1.90625 6.26171875 C-3 4 -3 4 -3 1 C-2.01 0.67 -1.02 0.34 0 0 Z " fill="#F6CCEB" transform="translate(235,60)"/>
<path d="M0 0 C1.32 0.33 2.64 0.66 4 1 C4 1.66 4 2.32 4 3 C4.99 3.33 5.98 3.66 7 4 C7 4.66 7 5.32 7 6 C7.66 6 8.32 6 9 6 C9 6.66 9 7.32 9 8 C9.99 8.33 10.98 8.66 12 9 C11.67 10.32 11.34 11.64 11 13 C9.34810857 11.40207236 7.7036661 9.79644124 6.0625 8.1875 C5.14597656 7.29417969 4.22945312 6.40085938 3.28515625 5.48046875 C1 3 1 3 0 0 Z " fill="#D4BECE" transform="translate(31,210)"/>
<path d="M0 0 C0.99 0.33 1.98 0.66 3 1 C-0.9173844 4.42771135 -6.52151811 9 -12 9 C-12 8.01 -12 7.02 -12 6 C-8.86501708 4.14223235 -6.62528568 3.79859524 -3 4 C-2.67 3.01 -2.34 2.02 -2 1 C-1.34 0.67 -0.68 0.34 0 0 Z " fill="#CEBAC9" transform="translate(194,234)"/>
<path d="M0 0 C1.109375 3.75 1.109375 3.75 0.125 6 C-0.24625 6.66 -0.6175 7.32 -1 8 C-1.165 8.721875 -1.33 9.44375 -1.5 10.1875 C-1.7475 11.0846875 -1.7475 11.0846875 -2 12 C-2.99 12.495 -2.99 12.495 -4 13 C-5.13350534 15.01669827 -5.13350534 15.01669827 -6 17 C-6.71484375 15.421875 -6.71484375 15.421875 -7 13 C-5.94290501 10.61505544 -4.8682111 8.48765933 -3.5625 6.25 C-3.22412109 5.64800781 -2.88574219 5.04601562 -2.53710938 4.42578125 C-1.70231735 2.94431935 -0.85258506 1.47129392 0 0 Z " fill="#C2B1BD" transform="translate(16,66)"/>
<path d="M0 0 C0.33 0.66 0.66 1.32 1 2 C-1.0569846 6.86537911 -3.82506306 11.68884312 -8 15 C-8.66 15 -9.32 15 -10 15 C-8.37815499 11.41486894 -6.20743761 8.41007677 -3.875 5.25 C-3.15054687 4.26515625 -2.42609375 3.2803125 -1.6796875 2.265625 C-1.12539063 1.51796875 -0.57109375 0.7703125 0 0 Z " fill="#C4B3C0" transform="translate(32,42)"/>
<path d="M0 0 C0.66 0 1.32 0 2 0 C1.67566492 5.35152885 -1.49704824 8.28280043 -5 12 C-5.33 10.68 -5.66 9.36 -6 8 C-5.360625 7.7525 -4.72125 7.505 -4.0625 7.25 C-1.82922897 6.19743256 -1.82922897 6.19743256 -1.3125 4 C-1.209375 3.34 -1.10625 2.68 -1 2 C-0.67 1.34 -0.34 0.68 0 0 Z " fill="#CAB5C4" transform="translate(227,202)"/>
<path d="M0 0 C0.66 0.33 1.32 0.66 2 1 C1.8125 2.875 1.8125 2.875 1 5 C-1.5625 6.25 -1.5625 6.25 -4 7 C-4 6.34 -4 5.68 -4 5 C-4.33 5.66 -4.66 6.32 -5 7 C-7.5625 7.625 -7.5625 7.625 -10 8 C-6.91367389 4.7373124 -4.06516496 1.97764782 0 0 Z " fill="#D2BACB" transform="translate(65,15)"/>
<path d="M0 0 C3.63970867 -0.42820102 5.04569463 0.02586488 8.3125 1.875 C9.199375 2.57625 10.08625 3.2775 11 4 C11 4.66 11 5.32 11 6 C6.95743617 4.77782954 3.50711041 3.37245704 0 1 C0 0.67 0 0.34 0 0 Z " fill="#C1B1BD" transform="translate(66,239)"/>
<path d="M0 0 C3 1 3 1 4 3 C5.64363134 3.72159424 7.31050386 4.39351421 9 5 C9 5.99 9 6.98 9 8 C5.66666667 6.33333333 2.33333333 4.66666667 -1 3 C-0.67 2.01 -0.34 1.02 0 0 Z " fill="#BEACB9" transform="translate(50,227)"/>
<path d="M0 0 C1.3271261 3.9813783 1.06915913 7.85045227 1 12 C-0.32 12.33 -1.64 12.66 -3 13 C-2.88490339 11.58249437 -2.75746342 10.16598831 -2.625 8.75 C-2.55539063 7.96109375 -2.48578125 7.1721875 -2.4140625 6.359375 C-1.98492887 3.914123 -1.21399362 2.15163097 0 0 Z " fill="#C2B0BD" transform="translate(8,83)"/>
<path d="M0 0 C2.91227269 3.28804981 4.49701212 5.59885603 5 10 C2.5 8.9375 2.5 8.9375 0 7 C-0.3125 3.3125 -0.3125 3.3125 0 0 Z " fill="#C1AEBC" transform="translate(239,67)"/>
<path d="M0 0 C2.70272533 2.87164566 3.94791837 4.30991841 4.25 8.3125 C4.1675 9.199375 4.085 10.08625 4 11 C1.59927045 8.11912454 -0.47291037 5.43595166 -2 2 C-1.34 2 -0.68 2 0 2 C0 1.34 0 0.68 0 0 Z " fill="#BBA9B7" transform="translate(19,189)"/>
<path d="M0 0 C-2.31 0.66 -4.62 1.32 -7 2 C-7 2.66 -7 3.32 -7 4 C-9.64 4 -12.28 4 -15 4 C-12.38668086 2.58445213 -9.69281871 1.41868688 -6.9375 0.3125 C-6.26589844 0.04050781 -5.59429687 -0.23148437 -4.90234375 -0.51171875 C-3 -1 -3 -1 0 0 Z " fill="#A99CA5" transform="translate(97,4)"/>
<path d="M0 0 C2.64 0 5.28 0 8 0 C5.04816899 2.95183101 2.04488053 3.08663988 -2 4 C-2.33 3.34 -2.66 2.68 -3 2 C-2.01 2 -1.02 2 0 2 C0 1.34 0 0.68 0 0 Z " fill="#A2959E" transform="translate(159,249)"/>
<path d="M0 0 C1.67542976 0.28604898 3.34385343 0.61781233 5 1 C4.34 2.32 3.68 3.64 3 5 C1.68 4.67 0.36 4.34 -1 4 C-1 1 -1 1 0 0 Z " fill="#E7C1DD" transform="translate(53,23)"/>
<path d="M0 0 C0.99 0.99 1.98 1.98 3 3 C2.67 3.66 2.34 4.32 2 5 C-1 5 -1 5 -3 4 C-3 3.01 -3 2.02 -3 1 C-2.01 0.67 -1.02 0.34 0 0 Z " fill="#D8BAD0" transform="translate(235,60)"/>
<path d="M0 0 C1.32 0.33 2.64 0.66 4 1 C4.66 3.31 5.32 5.62 6 8 C5.01 7.34 4.02 6.68 3 6 C3 5.01 3 4.02 3 3 C2.01 2.67 1.02 2.34 0 2 C0 1.34 0 0.68 0 0 Z " fill="#A99BA5" transform="translate(23,200)"/>
<path d="M0 0 C1.32 0.33 2.64 0.66 4 1 C4 1.66 4 2.32 4 3 C4.66 3.33 5.32 3.66 6 4 C5.67 4.99 5.34 5.98 5 7 C0 1.125 0 1.125 0 0 Z " fill="#BFAEBB" transform="translate(31,210)"/>
<path d="M0 0 C0.66 0 1.32 0 2 0 C1.25 5.75 1.25 5.75 -1 8 C-1.93065133 5.39417629 -2.14917407 4.35801776 -1.0625 1.75 C-0.711875 1.1725 -0.36125 0.595 0 0 Z " fill="#E8CFE3" transform="translate(239,182)"/>
<path d="M0 0 C3.3 0.99 6.6 1.98 10 3 C5.44968209 4.13757948 3.36915594 3.4283779 -1 2 C-0.67 1.34 -0.34 0.68 0 0 Z " fill="#B5A7B0" transform="translate(163,4)"/>
</svg>
